# xmcd
#
# Track frame offsets:
#	150
#	22595
#	41936
#	58604
#	73262
#	87249
#	92050
#	111717
#	129527
#	145103
#	159408
#	171335
#	189362
#	212751
#	232548
#	253516
#	268244
#	287616
#	307760
#
# Disc length: 4323 seconds
#
# Revision: 0
# Processed by: cddbd v1.5.2PL0 Copyright (c) Steve Scherf et al.
# Submitted via: audiograbber 1.83.01
#
DISCID=0a10e113
DTITLE=Steve Miller Band - Ultimate Hits CD2 Deluxe Edition
DYEAR=2017
DGENRE=Rock
TTITLE0=Wild Mountain Honey
TTITLE1=The Window
TTITLE2=Take The Money And Run (Demo)
TTITLE3=In The Midnight Hour
TTITLE4=Jungle Love
TTITLE5=Threshold
TTITLE6=Jet Airliner
TTITLE7=The Stake
TTITLE8=Swingtown
TTITLE9=Serenade From The Stars
TTITLE10=True Fine Love
TTITLE11=Heart Like A Wheel
TTITLE12=Abracadabra
TTITLE13=I Want To Make The World Turn Around
TTITLE14=Italian X Rays
TTITLE15=Don't Cha Know
TTITLE16=Cry, Cry, Cry
TTITLE17=Stranger Blues
TTITLE18=Behind The Barn
EXTD=
EXTT0=
EXTT1=
EXTT2=
EXTT3=
EXTT4=
EXTT5=
EXTT6=
EXTT7=
EXTT8=
EXTT9=
EXTT10=
EXTT11=
EXTT12=
EXTT13=
EXTT14=
EXTT15=
EXTT16=
EXTT17=
EXTT18=
PLAYORDER=
